<?xml version="1.0" standalone="no"?>
<!DOCTYPE svg PUBLIC "-//W3C//DTD SVG 20010904//EN"
 "http://www.w3.org/TR/2001/REC-SVG-20010904/DTD/svg10.dtd">
<svg version="1.0" xmlns="http://www.w3.org/2000/svg"
 width="72.000000pt" height="72.000000pt" viewBox="0 0 72.000000 72.000000"
 preserveAspectRatio="xMidYMid meet">
<metadata>
Created by potrace 1.14, written by Peter Selinger 2001-2017
</metadata>
<g transform="translate(0.000000,72.000000) scale(0.100000,-0.100000)"
fill="#000000" stroke="none">
<path d="M375 715 c-5 -2 -53 -13 -105 -25 -267 -62 -309 -139 -238 -430 62
-256 143 -300 428 -229 252 63 295 139 234 407 -11 49 -12 67 -3 78 9 11 8 15
-6 20 -9 4 -27 30 -39 58 -27 59 -70 103 -112 115 -28 8 -137 12 -159 6z"/>
</g>
</svg>
